<mxfile host="app.diagrams.net" modified="2023-03-19T22:12:32.619Z" agent="5.0 (Windows NT 10.0; Win64; x64) AppleWebKit/537.36 (KHTML, like Gecko) Chrome/111.0.0.0 Safari/537.36" etag="N0CV8FJsMnq4L0TwxmWN" version="21.0.2" type="github">
  <diagram name="Página-1" id="1MhN-qDOYnikFl2h52pO">
    <mxGraphModel dx="1434" dy="796" grid="1" gridSize="10" guides="1" tooltips="1" connect="1" arrows="1" fold="1" page="1" pageScale="1" pageWidth="827" pageHeight="1169" math="0" shadow="0">
      <root>
        <mxCell id="0" />
        <mxCell id="1" parent="0" />
        <mxCell id="4U1oHg2HHMCURmcUPHaV-3" value="" style="edgeStyle=orthogonalEdgeStyle;rounded=0;orthogonalLoop=1;jettySize=auto;html=1;" edge="1" parent="1" source="4U1oHg2HHMCURmcUPHaV-1" target="4U1oHg2HHMCURmcUPHaV-2">
          <mxGeometry relative="1" as="geometry" />
        </mxCell>
        <mxCell id="4U1oHg2HHMCURmcUPHaV-5" value="" style="edgeStyle=orthogonalEdgeStyle;rounded=0;orthogonalLoop=1;jettySize=auto;html=1;" edge="1" parent="1" source="4U1oHg2HHMCURmcUPHaV-1" target="4U1oHg2HHMCURmcUPHaV-4">
          <mxGeometry relative="1" as="geometry" />
        </mxCell>
        <mxCell id="4U1oHg2HHMCURmcUPHaV-1" value="Inicio" style="rounded=1;whiteSpace=wrap;html=1;fillColor=#dae8fc;strokeColor=#6c8ebf;" vertex="1" parent="1">
          <mxGeometry x="354" y="60" width="120" height="60" as="geometry" />
        </mxCell>
        <mxCell id="4U1oHg2HHMCURmcUPHaV-7" value="" style="edgeStyle=orthogonalEdgeStyle;rounded=0;orthogonalLoop=1;jettySize=auto;html=1;" edge="1" parent="1" source="4U1oHg2HHMCURmcUPHaV-2" target="4U1oHg2HHMCURmcUPHaV-6">
          <mxGeometry relative="1" as="geometry" />
        </mxCell>
        <mxCell id="4U1oHg2HHMCURmcUPHaV-2" value="7" style="shape=parallelogram;perimeter=parallelogramPerimeter;whiteSpace=wrap;html=1;fixedSize=1;rounded=1;" vertex="1" parent="1">
          <mxGeometry x="190" y="210" width="120" height="60" as="geometry" />
        </mxCell>
        <mxCell id="4U1oHg2HHMCURmcUPHaV-9" value="" style="edgeStyle=orthogonalEdgeStyle;rounded=0;orthogonalLoop=1;jettySize=auto;html=1;" edge="1" parent="1" source="4U1oHg2HHMCURmcUPHaV-4" target="4U1oHg2HHMCURmcUPHaV-8">
          <mxGeometry relative="1" as="geometry" />
        </mxCell>
        <mxCell id="4U1oHg2HHMCURmcUPHaV-4" value="20" style="shape=parallelogram;perimeter=parallelogramPerimeter;whiteSpace=wrap;html=1;fixedSize=1;rounded=1;" vertex="1" parent="1">
          <mxGeometry x="540" y="210" width="120" height="60" as="geometry" />
        </mxCell>
        <mxCell id="4U1oHg2HHMCURmcUPHaV-6" value="" style="rhombus;whiteSpace=wrap;html=1;rounded=1;" vertex="1" parent="1">
          <mxGeometry x="410" y="360" width="80" height="80" as="geometry" />
        </mxCell>
        <mxCell id="4U1oHg2HHMCURmcUPHaV-11" value="" style="edgeStyle=orthogonalEdgeStyle;rounded=0;orthogonalLoop=1;jettySize=auto;html=1;" edge="1" parent="1" source="4U1oHg2HHMCURmcUPHaV-8" target="4U1oHg2HHMCURmcUPHaV-10">
          <mxGeometry relative="1" as="geometry" />
        </mxCell>
        <mxCell id="4U1oHg2HHMCURmcUPHaV-8" value="7&amp;lt;20" style="rhombus;whiteSpace=wrap;html=1;rounded=1;" vertex="1" parent="1">
          <mxGeometry x="410" y="360" width="80" height="80" as="geometry" />
        </mxCell>
        <mxCell id="4U1oHg2HHMCURmcUPHaV-13" value="" style="edgeStyle=orthogonalEdgeStyle;rounded=0;orthogonalLoop=1;jettySize=auto;html=1;" edge="1" parent="1" source="4U1oHg2HHMCURmcUPHaV-10" target="4U1oHg2HHMCURmcUPHaV-12">
          <mxGeometry relative="1" as="geometry" />
        </mxCell>
        <mxCell id="4U1oHg2HHMCURmcUPHaV-10" value="a diferença é 13." style="shape=document;whiteSpace=wrap;html=1;boundedLbl=1;rounded=1;" vertex="1" parent="1">
          <mxGeometry x="390" y="520" width="120" height="80" as="geometry" />
        </mxCell>
        <mxCell id="4U1oHg2HHMCURmcUPHaV-12" value="Fim" style="whiteSpace=wrap;html=1;rounded=1;fillColor=#f8cecc;strokeColor=#b85450;" vertex="1" parent="1">
          <mxGeometry x="390" y="690" width="120" height="60" as="geometry" />
        </mxCell>
      </root>
    </mxGraphModel>
  </diagram>
</mxfile>
